<mxfile host="app.diagrams.net" modified="2022-05-26T04:58:18.610Z" agent="5.0 (Windows NT 10.0; Win64; x64) AppleWebKit/537.36 (KHTML, like Gecko) Chrome/101.0.4951.64 Safari/537.36 Edg/101.0.1210.53" etag="tkiNijKkr9ray3iwCss6" version="18.1.2" type="github">
  <diagram id="MI4iYfJNeIjmcIE7TyuI" name="Page-1">
    <mxGraphModel dx="1145" dy="628" grid="1" gridSize="10" guides="1" tooltips="1" connect="1" arrows="1" fold="1" page="1" pageScale="1" pageWidth="827" pageHeight="1169" math="0" shadow="0">
      <root>
        <mxCell id="0" />
        <mxCell id="1" parent="0" />
        <mxCell id="MbBtny4POaOhPNK782vj-5" value="" style="edgeStyle=orthogonalEdgeStyle;rounded=0;orthogonalLoop=1;jettySize=auto;html=1;" edge="1" parent="1" target="MbBtny4POaOhPNK782vj-2">
          <mxGeometry relative="1" as="geometry">
            <mxPoint x="380" y="150" as="sourcePoint" />
          </mxGeometry>
        </mxCell>
        <mxCell id="MbBtny4POaOhPNK782vj-6" value="" style="edgeStyle=orthogonalEdgeStyle;rounded=0;orthogonalLoop=1;jettySize=auto;html=1;" edge="1" parent="1" source="MbBtny4POaOhPNK782vj-2" target="MbBtny4POaOhPNK782vj-4">
          <mxGeometry relative="1" as="geometry" />
        </mxCell>
        <mxCell id="MbBtny4POaOhPNK782vj-9" value="" style="edgeStyle=orthogonalEdgeStyle;rounded=0;orthogonalLoop=1;jettySize=auto;html=1;" edge="1" parent="1" source="MbBtny4POaOhPNK782vj-2" target="MbBtny4POaOhPNK782vj-8">
          <mxGeometry relative="1" as="geometry" />
        </mxCell>
        <mxCell id="MbBtny4POaOhPNK782vj-2" value="判断是否在游戏中？" style="rhombus;whiteSpace=wrap;html=1;" vertex="1" parent="1">
          <mxGeometry x="340" y="190" width="80" height="80" as="geometry" />
        </mxCell>
        <mxCell id="MbBtny4POaOhPNK782vj-11" value="" style="edgeStyle=orthogonalEdgeStyle;rounded=0;orthogonalLoop=1;jettySize=auto;html=1;" edge="1" parent="1" source="MbBtny4POaOhPNK782vj-4" target="MbBtny4POaOhPNK782vj-10">
          <mxGeometry relative="1" as="geometry" />
        </mxCell>
        <mxCell id="MbBtny4POaOhPNK782vj-14" value="" style="edgeStyle=orthogonalEdgeStyle;rounded=0;orthogonalLoop=1;jettySize=auto;html=1;" edge="1" parent="1" source="MbBtny4POaOhPNK782vj-4" target="MbBtny4POaOhPNK782vj-13">
          <mxGeometry relative="1" as="geometry" />
        </mxCell>
        <mxCell id="MbBtny4POaOhPNK782vj-4" value="判断游戏类型" style="rhombus;whiteSpace=wrap;html=1;" vertex="1" parent="1">
          <mxGeometry x="335" y="310" width="90" height="80" as="geometry" />
        </mxCell>
        <mxCell id="MbBtny4POaOhPNK782vj-7" value="Y" style="text;html=1;strokeColor=none;fillColor=none;align=center;verticalAlign=middle;whiteSpace=wrap;rounded=0;" vertex="1" parent="1">
          <mxGeometry x="340" y="270" width="60" height="30" as="geometry" />
        </mxCell>
        <mxCell id="MbBtny4POaOhPNK782vj-8" value="加入游戏" style="rounded=1;whiteSpace=wrap;html=1;" vertex="1" parent="1">
          <mxGeometry x="530" y="200" width="120" height="60" as="geometry" />
        </mxCell>
        <mxCell id="MbBtny4POaOhPNK782vj-10" value="不可加入游戏" style="rounded=1;whiteSpace=wrap;html=1;" vertex="1" parent="1">
          <mxGeometry x="530" y="320" width="120" height="60" as="geometry" />
        </mxCell>
        <mxCell id="MbBtny4POaOhPNK782vj-12" value="非全面屏" style="text;html=1;strokeColor=none;fillColor=none;align=center;verticalAlign=middle;whiteSpace=wrap;rounded=0;" vertex="1" parent="1">
          <mxGeometry x="420" y="320" width="60" height="30" as="geometry" />
        </mxCell>
        <mxCell id="MbBtny4POaOhPNK782vj-18" value="" style="edgeStyle=orthogonalEdgeStyle;rounded=0;orthogonalLoop=1;jettySize=auto;html=1;" edge="1" parent="1" source="MbBtny4POaOhPNK782vj-13" target="MbBtny4POaOhPNK782vj-17">
          <mxGeometry relative="1" as="geometry" />
        </mxCell>
        <mxCell id="MbBtny4POaOhPNK782vj-21" style="edgeStyle=orthogonalEdgeStyle;rounded=0;orthogonalLoop=1;jettySize=auto;html=1;exitX=0.5;exitY=1;exitDx=0;exitDy=0;entryX=0.5;entryY=0;entryDx=0;entryDy=0;" edge="1" parent="1" source="MbBtny4POaOhPNK782vj-13" target="MbBtny4POaOhPNK782vj-20">
          <mxGeometry relative="1" as="geometry" />
        </mxCell>
        <mxCell id="MbBtny4POaOhPNK782vj-13" value="判断游戏是否是同一局？" style="rhombus;whiteSpace=wrap;html=1;" vertex="1" parent="1">
          <mxGeometry x="335" y="440" width="90" height="80" as="geometry" />
        </mxCell>
        <mxCell id="MbBtny4POaOhPNK782vj-15" value="分享" style="rounded=1;whiteSpace=wrap;html=1;" vertex="1" parent="1">
          <mxGeometry x="320" y="90" width="120" height="60" as="geometry" />
        </mxCell>
        <mxCell id="MbBtny4POaOhPNK782vj-16" value="N" style="text;html=1;strokeColor=none;fillColor=none;align=center;verticalAlign=middle;whiteSpace=wrap;rounded=0;" vertex="1" parent="1">
          <mxGeometry x="450" y="200" width="60" height="30" as="geometry" />
        </mxCell>
        <mxCell id="MbBtny4POaOhPNK782vj-17" value="&lt;span style=&quot;&quot;&gt;不可加入游戏&lt;/span&gt;" style="rounded=1;whiteSpace=wrap;html=1;" vertex="1" parent="1">
          <mxGeometry x="530" y="450" width="120" height="60" as="geometry" />
        </mxCell>
        <mxCell id="MbBtny4POaOhPNK782vj-19" value="N" style="text;html=1;strokeColor=none;fillColor=none;align=center;verticalAlign=middle;whiteSpace=wrap;rounded=0;" vertex="1" parent="1">
          <mxGeometry x="420" y="440" width="60" height="30" as="geometry" />
        </mxCell>
        <mxCell id="MbBtny4POaOhPNK782vj-20" value="加入游戏" style="rounded=1;whiteSpace=wrap;html=1;" vertex="1" parent="1">
          <mxGeometry x="320" y="555" width="120" height="60" as="geometry" />
        </mxCell>
        <mxCell id="MbBtny4POaOhPNK782vj-22" value="Y" style="text;html=1;strokeColor=none;fillColor=none;align=center;verticalAlign=middle;whiteSpace=wrap;rounded=0;" vertex="1" parent="1">
          <mxGeometry x="380" y="520" width="60" height="30" as="geometry" />
        </mxCell>
        <mxCell id="MbBtny4POaOhPNK782vj-23" value="Y" style="text;html=1;strokeColor=none;fillColor=none;align=center;verticalAlign=middle;whiteSpace=wrap;rounded=0;" vertex="1" parent="1">
          <mxGeometry x="365" y="400" width="60" height="30" as="geometry" />
        </mxCell>
      </root>
    </mxGraphModel>
  </diagram>
</mxfile>
